<?xml version="1.0" encoding="iso-8859-1"?>
<!-- Uploaded to: SVG Repo, www.svgrepo.com, Generator: SVG Repo Mixer Tools -->
<svg height="800px" width="800px" version="1.1" id="Layer_1" xmlns="http://www.w3.org/2000/svg" xmlns:xlink="http://www.w3.org/1999/xlink" 
	 viewBox="0 0 512 512" xml:space="preserve">
<path style="fill:#FFA6BB;" d="M480.446,206.68c-21.045-19.77-151.14-14.504-204.844,25.257c-5.738-1.969-12.368-3.062-19.603-3.062
	c-7.235,0-13.865,1.092-19.603,3.062c-53.703-39.76-183.799-45.026-204.843-25.257c-6.824,145.347,199.152,198.511,214.216,55.924
	c1.814-0.738,5.241-1.692,10.23-1.692s8.415,0.954,10.23,1.692C281.294,405.191,487.27,352.028,480.446,206.68z"/>
<g style="opacity:0.1;">
	<path d="M52.912,217.359c17.899-16.813,114.674-15.512,176.25,9.713C171.854,191.78,51.706,187.748,31.553,206.68
		c-3.094,65.893,37.548,112.84,84.311,131.191C78.812,315.042,50.303,272.941,52.912,217.359z"/>
</g>
<g>
	<path style="fill:#855D7A;" d="M159.316,314.371c-24.003-0.001-50.278-11.913-68.572-31.087
		c-10.649-11.161-22.699-28.935-26.271-54.293c6.245-0.82,14.698-1.457,25.638-1.457c48.685,0,99.236,11.706,123.849,27.751
		l-0.17,5.026c-5.129,44.647-32.399,54.06-54.471,54.06C159.319,314.371,159.317,314.371,159.316,314.371z"/>
	<path style="fill:#855D7A;" d="M352.684,314.371c24.003-0.001,50.278-11.913,68.572-31.087
		c10.649-11.161,22.699-28.935,26.271-54.293c-6.245-0.82-14.698-1.457-25.638-1.457c-48.685,0-99.236,11.706-123.849,27.751
		l0.17,5.026c5.129,44.647,32.399,54.06,54.471,54.06C352.681,314.371,352.683,314.371,352.684,314.371z"/>
</g>
<g>
	<polygon style="fill:#FFD782;" points="42.771,165.591 45.279,189.558 66.443,201.078 44.426,210.87 40.01,234.558 23.894,216.644 
		0,219.764 12.057,198.901 1.705,177.141 25.274,182.16 	"/>
	<polygon style="fill:#FFD782;" points="469.229,165.591 466.721,189.558 445.555,201.078 467.573,210.87 471.989,234.558 
		488.106,216.644 512,219.764 499.942,198.901 510.293,177.141 486.725,182.16 	"/>
</g>
</svg>